<svg width="181" height="52" viewBox="0 0 181 52" fill="none" xmlns="http://www.w3.org/2000/svg">
<path d="M1.178 40.5483V20.5663H26.3283V19.3978H1.178V1.16854H27.9186V0H0V41.7169H28.1542V40.5483H1.178ZM50.8308 11.6854L40.4055 25.2989L30.2157 11.6854H28.6843L39.6987 26.1753L27.6241 41.7169H29.0377L40.4055 27.0517L51.8321 41.7169H53.3046L41.1712 26.1753L52.2444 11.6854H50.8308ZM56.8386 52V33.3034H56.9564C57.6632 36.03 59.0572 38.221 61.1383 39.8764C63.2195 41.5318 65.8699 42.3596 69.0898 42.3596C71.171 42.3596 73.0165 41.9408 74.6264 41.1034C76.2364 40.2659 77.5812 39.1266 78.6611 37.6854C79.7409 36.2442 80.5655 34.5693 81.1349 32.6607C81.7043 30.7521 81.9889 28.7461 81.9889 26.6427C81.9889 24.3835 81.6944 22.2996 81.1054 20.391C80.5164 18.4824 79.6624 16.827 78.5433 15.4247C77.4242 14.0225 76.0695 12.9318 74.4792 12.1528C72.8889 11.3738 71.0924 10.9843 69.0898 10.9843C67.5584 10.9843 66.135 11.2082 64.8196 11.6562C63.5041 12.1041 62.3359 12.7371 61.315 13.5551C60.2941 14.373 59.4106 15.3371 58.6645 16.4472C57.9184 17.5573 57.3491 18.7745 56.9564 20.0989H56.8386V11.6854H55.6606V52H56.8386ZM69.0898 41.2494C65.3987 41.2494 62.4341 39.9933 60.1959 37.4809C57.9577 34.9685 56.8386 31.3558 56.8386 26.6427C56.8386 24.6951 57.1135 22.845 57.6632 21.0921C58.2129 19.3393 59.0081 17.8008 60.0486 16.4764C61.0892 15.1521 62.3752 14.1004 63.9066 13.3213C65.438 12.5423 67.1657 12.1528 69.0898 12.1528C71.0532 12.1528 72.7711 12.5423 74.2436 13.3213C75.7161 14.1004 76.9333 15.1618 77.8954 16.5056C78.8574 17.8494 79.5838 19.388 80.0747 21.1213C80.5655 22.8547 80.8109 24.6951 80.8109 26.6427C80.8109 28.3955 80.5852 30.1386 80.1336 31.8719C79.682 33.6053 78.985 35.1633 78.0426 36.5461C77.1002 37.9288 75.8928 39.0584 74.4203 39.9348C72.9478 40.8112 71.171 41.2494 69.0898 41.2494ZM88.4679 41.7169V24.7146C88.4679 23.0786 88.7035 21.4817 89.1748 19.9236C89.646 18.3655 90.3724 16.9925 91.3541 15.8045C92.3357 14.6165 93.5824 13.6817 95.0942 13C96.606 12.3183 98.4024 12.036 100.484 12.1528V10.9843C98.6773 10.9453 97.0968 11.1401 95.7421 11.5685C94.3874 11.997 93.2192 12.5813 92.2376 13.3213C91.2559 14.0614 90.4706 14.9281 89.8815 15.9213C89.2925 16.9146 88.8606 17.976 88.5857 19.1056H88.4679V11.6854H87.2899V41.7169H88.4679ZM101.956 26.9348H127.283C127.362 24.8704 127.155 22.8839 126.665 20.9753C126.174 19.0667 125.388 17.3723 124.309 15.8921C123.229 14.412 121.835 13.224 120.127 12.3281C118.419 11.4322 116.387 10.9843 114.031 10.9843C112.342 10.9843 110.693 11.3348 109.083 12.036C107.473 12.7371 106.059 13.7595 104.842 15.1034C103.625 16.4472 102.643 18.0929 101.897 20.0404C101.151 21.988 100.778 24.2082 100.778 26.7011C100.778 28.9214 101.033 30.9955 101.544 32.9236C102.054 34.8517 102.84 36.5266 103.9 37.9483C104.96 39.37 106.324 40.4704 107.993 41.2494C109.662 42.0285 111.675 42.3985 114.031 42.3596C117.486 42.3596 120.392 41.3955 122.748 39.4674C125.104 37.5393 126.498 34.8225 126.93 31.3169H125.752C125.241 34.6277 123.936 37.1109 121.835 38.7663C119.734 40.4217 117.093 41.2494 113.913 41.2494C111.753 41.2494 109.927 40.8794 108.435 40.1393C106.943 39.3992 105.726 38.3865 104.783 37.1011C103.841 35.8157 103.144 34.3064 102.692 32.573C102.241 30.8397 101.995 28.9603 101.956 26.9348ZM126.105 25.7663H101.956C102.074 23.6629 102.467 21.7738 103.134 20.0989C103.802 18.424 104.675 16.9925 105.755 15.8045C106.835 14.6165 108.091 13.7109 109.525 13.0876C110.958 12.4644 112.499 12.1528 114.148 12.1528C116.112 12.1528 117.839 12.5131 119.332 13.2337C120.824 13.9543 122.07 14.9378 123.072 16.1843C124.073 17.4307 124.829 18.8816 125.339 20.5371C125.85 22.1925 126.105 23.9356 126.105 25.7663ZM151.727 20.5663H152.905C152.905 17.2165 151.923 14.782 149.96 13.2629C147.996 11.7438 145.326 10.9843 141.949 10.9843C140.064 10.9843 138.474 11.218 137.178 11.6854C135.883 12.1528 134.822 12.7566 133.998 13.4966C133.173 14.2367 132.584 15.0547 132.231 15.9506C131.877 16.8464 131.701 17.7034 131.701 18.5213C131.701 20.1573 131.995 21.4622 132.584 22.436C133.173 23.4097 134.096 24.1693 135.352 24.7146C136.216 25.1041 137.198 25.4547 138.297 25.7663C139.397 26.0779 140.673 26.409 142.126 26.7596C143.422 27.0712 144.698 27.3828 145.954 27.6944C147.211 28.006 148.32 28.4247 149.282 28.9506C150.244 29.4764 151.03 30.1483 151.638 30.9663C152.247 31.7843 152.551 32.8554 152.551 34.1798C152.551 35.4652 152.247 36.5558 151.638 37.4517C151.03 38.3476 150.254 39.0779 149.312 39.6427C148.369 40.2075 147.319 40.6165 146.161 40.8697C145.002 41.1228 143.873 41.2494 142.774 41.2494C139.201 41.2494 136.462 40.4607 134.557 38.8831C132.653 37.3056 131.701 34.8225 131.701 31.4337H130.523C130.523 35.212 131.553 37.9775 133.615 39.7303C135.676 41.4832 138.729 42.3596 142.774 42.3596C144.07 42.3596 145.375 42.2135 146.691 41.9213C148.006 41.6292 149.184 41.1521 150.225 40.4899C151.265 39.8277 152.109 38.9708 152.757 37.9191C153.405 36.8674 153.729 35.582 153.729 34.0629C153.729 32.6217 153.445 31.4532 152.875 30.5573C152.306 29.6614 151.56 28.9214 150.637 28.3371C149.714 27.7528 148.674 27.2951 147.515 26.964C146.357 26.633 145.189 26.3116 144.011 26C142.362 25.5715 140.918 25.2015 139.682 24.8899C138.445 24.5783 137.296 24.2082 136.236 23.7798C135.215 23.3513 134.4 22.7378 133.792 21.9393C133.183 21.1408 132.879 20.0015 132.879 18.5213C132.879 18.2487 132.957 17.7618 133.114 17.0607C133.271 16.3595 133.644 15.6487 134.233 14.9281C134.822 14.2075 135.725 13.5648 136.943 13C138.16 12.4352 139.829 12.1528 141.949 12.1528C143.402 12.1528 144.727 12.3086 145.925 12.6202C147.123 12.9318 148.153 13.4285 149.017 14.1101C149.881 14.7918 150.549 15.6584 151.02 16.7101C151.491 17.7618 151.727 19.0472 151.727 20.5663ZM178.997 20.5663H180.175C180.175 17.2165 179.194 14.782 177.23 13.2629C175.267 11.7438 172.597 10.9843 169.22 10.9843C167.335 10.9843 165.745 11.218 164.449 11.6854C163.153 12.1528 162.093 12.7566 161.268 13.4966C160.444 14.2367 159.855 15.0547 159.501 15.9506C159.148 16.8464 158.971 17.7034 158.971 18.5213C158.971 20.1573 159.266 21.4622 159.855 22.436C160.444 23.4097 161.367 24.1693 162.623 24.7146C163.487 25.1041 164.469 25.4547 165.568 25.7663C166.668 26.0779 167.944 26.409 169.397 26.7596C170.692 27.0712 171.969 27.3828 173.225 27.6944C174.482 28.006 175.591 28.4247 176.553 28.9506C177.515 29.4764 178.3 30.1483 178.909 30.9663C179.518 31.7843 179.822 32.8554 179.822 34.1798C179.822 35.4652 179.518 36.5558 178.909 37.4517C178.3 38.3476 177.525 39.0779 176.582 39.6427C175.64 40.2075 174.59 40.6165 173.431 40.8697C172.273 41.1228 171.144 41.2494 170.045 41.2494C166.471 41.2494 163.732 40.4607 161.828 38.8831C159.924 37.3056 158.971 34.8225 158.971 31.4337H157.793C157.793 35.212 158.824 37.9775 160.886 39.7303C162.947 41.4832 166 42.3596 170.045 42.3596C171.34 42.3596 172.646 42.2135 173.961 41.9213C175.277 41.6292 176.455 41.1521 177.495 40.4899C178.536 39.8277 179.38 38.9708 180.028 37.9191C180.676 36.8674 181 35.582 181 34.0629C181 32.6217 180.715 31.4532 180.146 30.5573C179.577 29.6614 178.831 28.9214 177.908 28.3371C176.985 27.7528 175.944 27.2951 174.786 26.964C173.628 26.633 172.459 26.3116 171.281 26C169.632 25.5715 168.189 25.2015 166.952 24.8899C165.715 24.5783 164.567 24.2082 163.507 23.7798C162.486 23.3513 161.671 22.7378 161.062 21.9393C160.454 21.1408 160.149 20.0015 160.149 18.5213C160.149 18.2487 160.228 17.7618 160.385 17.0607C160.542 16.3595 160.915 15.6487 161.504 14.9281C162.093 14.2075 162.996 13.5648 164.213 13C165.431 12.4352 167.1 12.1528 169.22 12.1528C170.673 12.1528 171.998 12.3086 173.196 12.6202C174.393 12.9318 175.424 13.4285 176.288 14.1101C177.152 14.7918 177.819 15.6584 178.291 16.7101C178.762 17.7618 178.997 19.0472 178.997 20.5663Z" fill="#F7DF1E"/>
</svg>
